<svg xmlns="http://www.w3.org/2000/svg" viewBox="0 0 32 32" fill="none">
  <defs>
    <radialGradient id="fbg" cx="50%" cy="40%" r="70%">
      <stop offset="0%" stop-color="#1a3d2e"/>
      <stop offset="100%" stop-color="#060f0b"/>
    </radialGradient>
    <linearGradient id="fspade" x1="30%" y1="0%" x2="70%" y2="100%">
      <stop offset="0%" stop-color="#7dffb0"/>
      <stop offset="50%" stop-color="#3ecf7a"/>
      <stop offset="100%" stop-color="#0d3d28"/>
    </linearGradient>
  </defs>
  <rect width="32" height="32" rx="6" fill="url(#fbg)"/>
  <path d="M16 5c-1 0-11 7-11 17c0 6 5 11 11 15c6-4 11-9 11-15c0-10-10-17-11-17z" fill="url(#fspade)"/>
  <path d="M16 6c-5 3-9 8-9 15c0 4 3 8 6 10-3-2-5-5-5-9c0-6 4-11 8-13z" fill="#b8ffd4" opacity="0.3"/>
  <path d="M14 24h4l-1 5c0 1-1 2-1 2s-1-1-1-2l-1-5z" fill="url(#fspade)"/>
</svg>
