<svg xmlns="http://www.w3.org/2000/svg" viewBox="0 0 180 48" fill="none">
  <defs>
    <linearGradient id="hspade" x1="0%" y1="0%" x2="100%" y2="100%">
      <stop offset="0%" stop-color="#7dffb0"/>
      <stop offset="50%" stop-color="#3ecf7a"/>
      <stop offset="100%" stop-color="#1a5c3d"/>
    </linearGradient>
    <linearGradient id="htext" x1="0%" y1="0%" x2="0%" y2="100%">
      <stop offset="0%" stop-color="#1a5c3d"/>
      <stop offset="100%" stop-color="#0d3d28"/>
    </linearGradient>
  </defs>
  <!-- Spade icon -->
  <rect x="0" y="4" width="40" height="40" rx="8" fill="#0f2419"/>
  <path d="M20 10c-1 0-9 6-9 14c0 5 4 9 9 12c5-3 9-7 9-12c0-8-8-14-9-14z" fill="url(#hspade)"/>
  <path d="M18 32h4l-1 4c0 1-1 1-1 1s-1 0-1-1l-1-4z" fill="url(#hspade)"/>
  <!-- Text -->
  <text x="50" y="22" font-family="Georgia, 'Times New Roman', serif" font-size="15" font-weight="700" letter-spacing="1.5" fill="url(#htext)">RIVEROK</text>
  <text x="50" y="38" font-family="Georgia, 'Times New Roman', serif" font-size="11" font-weight="600" letter-spacing="3" fill="#2d8f5e">CLUB</text>
</svg>
